<svg xmlns="http://www.w3.org/2000/svg" viewBox="0 0 1195.94 318.5"><path d="M1059.35,131.8l1.3,21.3-22.3-15.8Z" transform="translate(0.49 0)" style="fill:#7fb612"/><path d="M1043.25,122.7l16.1,9.2-21,5.5Z" transform="translate(0.49 0)" style="fill:#addc4e"/><path d="M794.85,0l-79.2,15.4,52,56.5Z" transform="translate(0.49 0)" style="fill:#c1e96e"/><path d="M862.15,58.9l-94.6,12.9L794.75.5Z" transform="translate(0.49 0)" style="fill:#a4ce4e"/><path d="M850.75,131.2l-83.2-59.4,94.6-12.9Z" transform="translate(0.49 0)" style="fill:#84b61f"/><path d="M772.05,183.7l-4.5-111.9,83.2,59.4Z" transform="translate(0.49 0)" style="fill:#80af2b"/><path d="M715.55,15.4V126.7l52-54.8Z" transform="translate(0.49 0)" style="fill:#93c532"/><path d="M767.55,71.8l-52,54.8,56.5,57.1Z" transform="translate(0.49 0)" style="fill:#6ca010"/><path d="M715.55,126.6v68l56.5-10.9Z" transform="translate(0.49 0)" style="fill:#618a20"/><path d="M841.35,184.2l-69.3-.5,78.7-52.5Z" transform="translate(0.49 0)" style="fill:#6d9c1d"/><path d="M850.75,131.2l11.4-72.3,25.3,48.5Z" transform="translate(0.49 0)" style="fill:#75a619"/><path d="M911.65,72.8l-49.5-13.9,25.3,48.5Z" transform="translate(0.49 0)" style="fill:#a4ce4e"/><path d="M836.45,254l-64.4-70.3,69.3.5Z" transform="translate(0.49 0)" style="fill:#51780b"/><path d="M887.45,107.5l-46.1,76.8,9.4-53Z" transform="translate(0.49 0)" style="fill:#618917"/><path d="M941.35,123.3l-29.7-50.5-24.2,34.7Z" transform="translate(0.49 0)" style="fill:#addd4b"/><path d="M905.75,222.9l-18.3-115.4-46.1,76.8Z" transform="translate(0.49 0)" style="fill:#75a619"/><path d="M941,122.8l-53.5-15.3,68.3,58.9Z" transform="translate(0.49 0)" style="fill:#c1e96e"/><path d="M905.75,222.9l-18.3-115.4,68.3,58.9Z" transform="translate(0.49 0)" style="fill:#84b525"/><path d="M841.35,184.2l-5,69.8,69.3-31.2Z" transform="translate(0.49 0)" style="fill:#5c8213"/><path d="M905.75,222.9l-69.3,31.2,148.6,6.4Z" transform="translate(0.49 0)" style="fill:#537a0d"/><path d="M955.75,166.4l-50,56.5,87.7-6.9Z" transform="translate(0.49 0)" style="fill:#80af2b"/><path d="M993.35,215.9l-87.7,6.9,79.2,37.6Z" transform="translate(0.49 0)" style="fill:#5c880d"/><path d="M1044,184.2,941,123.3l14.9,43.1Z" transform="translate(0.49 0)" style="fill:#addc4e"/><path d="M1044,184.2l-88.2-17.8,37.6,49.5Z" transform="translate(0.49 0)" style="fill:#8fc323"/><path d="M1044,184.2l-50.5,31.7,95.6,36.6Z" transform="translate(0.49 0)" style="fill:#87bd1f"/><path d="M993.35,215.9,985,260.5l104-7.9Z" transform="translate(0.49 0)" style="fill:#699327"/><path d="M1060.75,283.8,985,260.5l104-7.9Z" transform="translate(0.49 0)" style="fill:#6ca010"/><path d="M1093,318.4,985,260.5l75.8,23.3Z" transform="translate(0.49 0)" style="fill:#51780b"/><path d="M1150.35,154l-106.5,30.2,65.4,11.4Z" transform="translate(0.49 0)" style="fill:#c1e96e"/><path d="M1044,184.2l45.1,68.3,19.8-57Z" transform="translate(0.49 0)" style="fill:#7eb31b"/><path d="M1060.75,283.8l28.2-31.2,4,65.9Z" transform="translate(0.49 0)" style="fill:#6d9c1d"/><path d="M1108.75,195.6,1089,252.5l61.4-98.5Z" transform="translate(0.49 0)" style="fill:#80af2b"/><path d="M1150.35,154,1089,252.5l41.6-31.2Z" transform="translate(0.49 0)" style="fill:#6d9c1d"/><path d="M1153.35,264.9,1089,252.5l4,65.9Z" transform="translate(0.49 0)" style="fill:#5c880d"/><path d="M1130.55,221.4,1089,252.6l64.4,12.4Z" transform="translate(0.49 0)" style="fill:#618a20"/><path d="M1150.35,154l-19.8,67.3,64.9-14.9Z" transform="translate(0.49 0)" style="fill:#93c532"/><path d="M1195.45,128.3l-45.1,25.7,45.1,52.5Z" transform="translate(0.49 0)" style="fill:#addc4e"/><path d="M1130.55,221.4l22.8,43.6,42.1-58.4Z" transform="translate(0.49 0)" style="fill:#75a619"/><path d="M1195.45,206.5l-42.1,58.4,42.1,30.2Z" transform="translate(0.49 0)" style="fill:#5c880d"/><path d="M1153.35,264.9,1093,318.4l102.5-23.2Z" transform="translate(0.49 0)" style="fill:#51780b"/><path d="M427.45,100.5l-17.4,92.9-54.7-6.9Z" transform="translate(0.49 0)" style="fill:#5a850d"/><path d="M673.75,44.8l41.8,81.8V15.6Z" transform="translate(0.49 0)" style="fill:#8fc323"/><path d="M642.15,186.7l73.4-60.1-41.8-81.8Z" transform="translate(0.49 0)" style="fill:#84b525"/><path d="M599.35,148.7l42.8,38,31.6-141.9Z" transform="translate(0.49 0)" style="fill:#80af2b"/><path d="M642.15,186.7l73.4,7.9v-68Z" transform="translate(0.49 0)" style="fill:#6ca010"/><path d="M601.65,241.9l40.5-55.2-42.8-38Z" transform="translate(0.49 0)" style="fill:#6d9c1d"/><path d="M568.55,204.4l30.8-55.7-96-16.2Z" transform="translate(0.49 0)" style="fill:#6b9f0f"/><path d="M601.65,241.9l-2.3-93.1-30.8,55.7Z" transform="translate(0.49 0)" style="fill:#699327"/><path d="M601.65,241.9l-33.1-37.5-60.8-3.3Z" transform="translate(0.49 0)" style="fill:#6a8e2e"/><path d="M503.35,132.6,481.55,102l-14.1,75.5Z" transform="translate(0.49 0)" style="fill:#7eb31b"/><path d="M481.55,102l-54.1-1.3,40,76.5Z" transform="translate(0.49 0)" style="fill:#75a619"/><path d="M427.45,100.8l-60-22.1-12.1,107.8Z" transform="translate(0.49 0)" style="fill:#76ab12"/><path d="M481.55,102l-88.3-61.6,34.1,60.3Z" transform="translate(0.49 0)" style="fill:#a4d444"/><path d="M393.35,40.5l-104.2,41,78.3-2.8Z" transform="translate(0.49 0)" style="fill:#addc4e"/><path d="M467.45,177.5l-40-76.7-17.4,92.6Z" transform="translate(0.49 0)" style="fill:#5c880d"/><path d="M355.35,186.5l-38-43.9-4.6,88.8Z" transform="translate(0.49 0)" style="fill:#618917"/><path d="M271.15,187.3l41.6,44,4.6-88.8Z" transform="translate(0.49 0)" style="fill:#5c8313"/><path d="M427.45,100.8l-34.1-60.3-25.9,38.2Z" transform="translate(0.49 0)" style="fill:#88bb20"/><path d="M367.45,78.7l-78.3,2.8,28.2,61.1Z" transform="translate(0.49 0)" style="fill:#8dc027"/><path d="M507.75,201.1l-4.4-68.5-35.9,44.9Z" transform="translate(0.49 0)" style="fill:#5f8b0f"/><path d="M507.75,201.1l-40.3-23.6L410,193.4Z" transform="translate(0.49 0)" style="fill:#51780b"/><path d="M410,193.4l-54.7-6.9-42.6,44.9Z" transform="translate(0.49 0)" style="fill:#577e14"/><path d="M312.75,231.4l-41.6-44.1-40.25,7.6L249,202.85Z" transform="translate(0.49 0)" style="fill:#61861f"/><path d="M599.35,148.7l-8.5-67.5-87.5,51.3Z" transform="translate(0.49 0)" style="fill:#7eb414"/><path d="M599.35,148.7l22.8-108.3-31.3,40.8Z" transform="translate(0.49 0)" style="fill:#84b61f"/><path d="M599.35,148.7l74.4-103.9-51.6-4.4Z" transform="translate(0.49 0)" style="fill:#a4ce4e"/><path d="M642.15,186.7l-40.5,55.2,113.9-47.3Z" transform="translate(0.49 0)" style="fill:#618a20"/><path d="M481.55,102l109.3-20.8-87.5,51.3Z" transform="translate(0.49 0)" style="fill:#8fc323"/><path d="M503.35,132.6l65.2,71.8-60.8-3.3Z" transform="translate(0.49 0)" style="fill:#5d890e"/><path d="M481.55,102l140.6-61.6-31.3,40.8Z" transform="translate(0.49 0)" style="fill:#addd4b"/><path d="M289.15,81.5l28.2,61.1-80-54.2Z" transform="translate(0.49 0)" style="fill:#87bd1f"/><path d="M252.45,50.5l36.7,31-51.8,6.9Z" transform="translate(0.49 0)" style="fill:#c1e96e"/><path d="M226.77,54.8l25.68-4.3-15.1,38-5-15.9Z" transform="translate(0.49 0)" style="fill:#bde664"/><path d="M258.65,165.5l-21.3-77.1,80.1,54.1Z" transform="translate(0.49 0)" style="fill:#7fb41b"/><path d="M258.65,165.5,230.9,194.9l1.55-68.2,4.9-38.2Z" transform="translate(0.49 0)" style="fill:#77a720"/><path d="M258.65,165.5l12.5,21.8-40.25,7.6,12.61-13.65Z" transform="translate(0.49 0)" style="fill:#537a0d"/><path d="M367.45,78.8l-12.1,107.8-38-43.9Z" transform="translate(0.49 0)" style="fill:#7db111"/><path d="M258.65,165.5l12.5,21.8,46.5-44.9Z" transform="translate(0.49 0)" style="fill:#5b840e"/><path d="M341.25,31.6l11.5,18.2-27.5-3.1Z" transform="translate(0.49 0)" style="fill:#7fb612"/><path d="M322.55,31.3l18.7.3-15.9,15.1Z" transform="translate(0.49 0)" style="fill:#639407"/><path d="M86.29,259.61,65,256.71,85,237.65Z" transform="translate(0.49 0)" style="fill:#537a0d"/><path d="M98.55,245.49,86.29,259.61,85,237.72Z" transform="translate(0.49 0)" style="fill:#639407"/><path d="M226.77,179.07" transform="translate(0.49 0)" style="fill:#537a0d"/><polyline points="237.84 88.4 173.48 120.75 237.84 88.4 231.39 194.9 173.48 120.75 237.84 88.4" style="fill:#76ab12"/><path d="M237.35,88.4" transform="translate(0.49 0)" style="fill:#75a619"/><path d="M-.49,11" transform="translate(0.49 0)" style="fill:#c1e96e"/><path d="M-.49,11" transform="translate(0.49 0)" style="fill:#88bb20"/><path d="M-.49,11" transform="translate(0.49 0)" style="fill:#75a619"/><path d="M226.77,54.8" transform="translate(0.49 0)" style="fill:#c1e96e"/><polygon points="237.84 88.4 227.26 54.8 173.48 120.75 237.84 88.4" style="fill:#8dc027"/><polygon points="227.26 54.8 141.41 40.7 173.48 120.75 227.26 54.8" style="fill:#a4ce4e"/><polygon points="231.39 194.9 205.66 217.63 173.48 120.75 231.39 194.9" style="fill:#699327"/><polygon points="141.41 40.7 90.63 61 173.48 120.75 141.41 40.7" style="fill:#c1e96e"/><polygon points="205.66 217.63 141.41 131.2 173.48 120.75 205.66 217.63" style="fill:#618a20"/><polygon points="90.63 61 51.88 106.85 173.48 120.75 90.63 61" style="fill:#87bd1f"/><polygon points="141.41 131.2 51.88 106.85 173.48 120.75 141.41 131.2" style="fill:#6b9f0f"/><polygon points="205.66 217.63 146.76 231.3 141.41 131.2 205.66 217.63" style="fill:#537a0d"/><polygon points="51.88 106.85 0.49 61 90.63 61 51.88 106.85" style="fill:#93c532"/><polygon points="141.41 131.2 65.74 150.53 81.28 208.95 141.41 131.2" style="fill:#5a850d"/><polygon points="146.76 231.3 141.41 131.2 81.28 208.95 146.76 231.3" style="fill:#61861f"/><polygon points="65.74 150.53 51.88 106.85 141.41 131.2 65.74 150.53" style="fill:#76ab12"/><polygon points="81.28 208.95 0.49 248.36 0 187.3 81.28 208.95" style="fill:#618917"/><polygon points="65.74 150.53 0 187.3 81.28 208.95 65.74 150.53" style="fill:#51780b"/><polygon points="51.88 106.85 0 187.3 65.74 150.53 51.88 106.85" style="fill:#6d9c1d"/><polygon points="0.49 61 0 187.3 51.88 106.85 0.49 61" style="fill:#75a619"/></svg>
