<svg id="Layer_1" data-name="Layer 1" xmlns="http://www.w3.org/2000/svg" viewBox="0 0 469.3 50"><path d="M207.6,5.2l.3,4.2-4.4-3.1Z" fill="#7fb728"/><path d="M204.5,3.4l3.1,1.8-4.1,1.1Z" fill="#adcc53"/><path d="M154.5,0,140.3,2.3l10.2,8.4Z" fill="#c0d570"/><path d="M169,8.2l-18.5,2.5,4-10.7Z" fill="#a5c951"/><path d="M166.8,22.3,150.5,10.7,169,8.2Z" fill="#85b727"/><path d="M151.3,32.6l-.8-21.9,16.3,11.6Z" fill="#80af2b"/><path d="M140.3,2.3V21.4l10.2-10.7Z" fill="#94c137"/><path d="M150.5,10.7,140.3,21.4l11,11.2Z" fill="#6ca12e"/><path d="M140.3,21.4V34.7l11-2.1Z" fill="#628b2e"/><path d="M164.9,32.7H151.3l15.5-10.3Z" fill="#6d9c2e"/><path d="M166.8,22.3,169,8.2l5,9.5Z" fill="#75a72d"/><path d="M178.7,10.9,169,8.2l5,9.5Z" fill="#a5c951"/><path d="M165.6,42.5l-14.2-9.9h13.5Z" fill="#537a2c"/><path d="M174,17.7l-9.1,15,1.9-10.4Z" fill="#618a2e"/><path d="M184.5,20.8l-5.8-9.9L174,17.7Z" fill="#adcc52"/><path d="M177.5,40.3,174,17.7l-9.1,15Z" fill="#75a72d"/><path d="M184.5,20.7l-10.5-3,13.4,11.5Z" fill="#c0d570"/><path d="M177.5,40.3,174,17.7l13.3,11.5Z" fill="#84b527"/><path d="M164.9,32.7l.7,9.8,11.9-2.2Z" fill="#5e842d"/><path d="M177.5,40.3l-11.9,2.2,27.5,5.2Z" fill="#547b2d"/><path d="M187.3,29.2l-9.8,11.1,17.2-1.4Z" fill="#80af2b"/><path d="M194.7,38.9l-17.2,1.4L193,47.6Z" fill="#5d892f"/><path d="M204.6,20.8H184.5l2.9,8.4Z" fill="#adcc53"/><path d="M204.6,20.8l-17.2,8.4,7.3,9.7Z" fill="#92c029"/><path d="M204.6,20.8l-9.9,18.1,18.8-4.7Z" fill="#89bd24"/><path d="M194.7,38.9l-1.6,8.8,20.4-13.5Z" fill="#6a932e"/><path d="M213.5,34.2,193.1,47.7,208.8,44Z" fill="#6ca12e"/><path d="M225.5,14.9l-20.9,5.9,12.8,2.3Z" fill="#c0d570"/><path d="M204.6,20.8l8.9,13.4,3.9-11.1Z" fill="#7fb329"/><path d="M208.8,44l4.7-9.8.6,11.1Z" fill="#6d9c2e"/><path d="M217.3,23.1l-3.9,11.1,12.1-19.3Z" fill="#80af2b"/><path d="M225.5,14.9l-12,19.3,8.1-6.1Z" fill="#6d9c2e"/><path d="M226,36.6l-12.5-2.4.6,11.1Z" fill="#5d892f"/><path d="M221.6,28.1l-8.2,6.1L226,36.7Z" fill="#628b2e"/><path d="M225.5,14.9l-3.9,13.2L235,33.3Z" fill="#94c137"/><path d="M235.1,8.6l-9.6,6.3L235,33.3Z" fill="#adcc53"/><path d="M221.6,28.1l4.4,8.6,9-3.4Z" fill="#75a72d"/><path d="M235,33.3l-9,3.3,9.1,8.7Z" fill="#5d892f"/><path d="M226,36.6l-11.9,8.7h21Z" fill="#537a2c"/><path d="M83.8,16.3,80.4,34.5,69.7,33.2Z" fill="#5b862e"/><path d="M132.1,5.4l8.2,16V2.3Z" fill="#a5c84b"/><path d="M125.9,33.2l14.4-11.8-8.2-16Z" fill="#84b527"/><path d="M117.5,25.8l8.4,7.4,6.2-27.8Z" fill="#80af2b"/><path d="M125.9,33.2l14.4,1.5V21.4Z" fill="#6ca12e"/><path d="M118,44l7.9-10.8-8.4-7.4Z" fill="#6d9c2e"/><path d="M111.5,36.7l6-10.9L98.7,22.6Z" fill="#6ca02e"/><path d="M118,44l-.5-18.2-6,10.9Z" fill="#6a932e"/><path d="M118,44l-6.5-7.3L99.6,36Z" fill="#6b8e2d"/><path d="M98.7,22.6l-4.3-6L91.7,31.4Z" fill="#7fb329"/><path d="M94.4,16.6l-10.6-.2,7.9,14.9Z" fill="#75a72d"/><path d="M83.8,16.4,72.1,12,69.7,33.2Z" fill="#77ac2c"/><path d="M94.4,16.6,77.1,4.5l6.7,11.9Z" fill="#a5c84b"/><path d="M77.2,4.6l-20.5,8L72.1,12Z" fill="#adcc53"/><path d="M91.7,31.4l-7.9-15L80.4,34.5Z" fill="#5d892f"/><path d="M69.7,33.2l-7.4-8.6L61.4,42Z" fill="#618a2e"/><path d="M53.2,33.3l8.2,8.6.9-17.4Z" fill="#5d842d"/><path d="M83.8,16.4,77.2,4.6,72.1,12Z" fill="#89bc24"/><path d="M72.1,12l-15.4.6,5.6,12Z" fill="#8ebf2d"/><path d="M99.6,36l-.9-13.4-7,8.8Z" fill="#618d2f"/><path d="M99.6,36l-7.9-4.6L80.4,34.5Z" fill="#537a2c"/><path d="M80.4,34.5,69.7,33.2,61.4,42Z" fill="#597f2d"/><path d="M61.4,42l-8.2-8.7-7.9,1.5,3.6,1.6Z" fill="#62872d"/><path d="M117.5,25.8l-1.7-13.3L98.7,22.6Z" fill="#7fb529"/><path d="M117.5,25.8,122,4.5l-6.2,8Z" fill="#85b727"/><path d="M117.5,25.8,132.1,5.4,122,4.5Z" fill="#a5c951"/><path d="M125.9,33.2,118,44l22.3-9.3Z" fill="#628b2e"/><path d="M94.4,16.6l21.4-4.1L98.7,22.6Z" fill="#92c029"/><path d="M98.7,22.6l12.8,14.1L99.6,36Z" fill="#5e8a2f"/><path d="M94.4,16.6,122,4.5l-6.2,8Z" fill="#adcc52"/><path d="M56.7,12.6l5.6,12L46.6,13.9Z" fill="#89bd24"/><path d="M49.5,6.5l7.2,6.1L46.6,13.9Z" fill="#c0d570"/><path d="M44.5,7.4l5.1-.9-3,7.5-1-3.2Z" fill="#bcd368"/><path d="M50.8,29,46.6,13.9,62.3,24.5Z" fill="#80b528"/><path d="M50.8,29l-5.5,5.8.3-13.4,1-7.4Z" fill="#78a82c"/><path d="M50.8,29l2.4,4.3-7.9,1.5,2.5-2.7Z" fill="#547b2d"/><path d="M72.1,12.1,69.7,33.2l-7.4-8.6Z" fill="#7eb129"/><path d="M50.8,29l2.4,4.3,9.1-8.8Z" fill="#5c862e"/><path d="M66.9,2.8l2.3,3.6-5.4-.6Z" fill="#7fb728"/><path d="M63.3,2.8h3.6l-3.1,3Z" fill="#639630"/><path d="M17,47.5l-4.2-.6,4-3.7Z" fill="#547b2d"/><path d="M19.4,44.7,17,47.5l-.3-4.3Z" fill="#639630"/><path d="M44.5,31.7" fill="#547b2d"/><polyline points="46.6 13.9 34 20.3 46.6 13.9 45.3 34.8 34 20.3 46.6 13.9" fill="#77ac2c"/><path d="M46.6,13.9" fill="#75a72d"/><path d="M0-1.2" fill="#c0d570"/><path d="M0-1.2" fill="#89bc24"/><path d="M0-1.2" fill="#75a72d"/><path d="M44.5,7.4" fill="#c0d570"/><polygon points="46.6 13.9 44.5 7.4 34 20.3 46.6 13.9" fill="#8ebf2d"/><polygon points="44.5 7.4 27.7 4.6 34 20.3 44.5 7.4" fill="#a5c951"/><polygon points="45.3 34.8 40.3 39.3 34 20.3 45.3 34.8" fill="#6a932e"/><polygon points="27.7 4.6 17.8 8.6 34 20.3 27.7 4.6" fill="#c0d570"/><polygon points="40.3 39.3 27.7 22.3 34 20.3 40.3 39.3" fill="#628b2e"/><polygon points="17.8 8.6 10.2 17.5 34 20.3 17.8 8.6" fill="#89bd24"/><polygon points="27.7 22.3 10.2 17.5 34 20.3 27.7 22.3" fill="#6ca02e"/><polygon points="40.3 39.3 28.8 41.9 27.7 22.3 40.3 39.3" fill="#547b2d"/><polygon points="10.2 17.5 0.1 8.6 17.8 8.6 10.2 17.5" fill="#94c137"/><polygon points="27.7 22.3 12.9 26.1 15.9 37.5 27.7 22.3" fill="#5b862e"/><polygon points="28.8 41.9 27.7 22.3 15.9 37.5 28.8 41.9" fill="#62872d"/><polygon points="12.9 26.1 10.2 17.5 27.7 22.3 12.9 26.1" fill="#77ac2c"/><polygon points="15.9 37.5 0.1 45.3 0 33.3 15.9 37.5" fill="#618a2e"/><polygon points="12.9 26.1 0 33.3 15.9 37.5 12.9 26.1" fill="#537a2c"/><polygon points="10.2 17.5 0 33.3 12.9 26.1 10.2 17.5" fill="#6d9c2e"/><polygon points="0.1 8.6 0 33.3 10.2 17.5 0.1 8.6" fill="#75a72d"/><path d="M436,14.6l.2,4.2-4.4-3.1Z" fill="#7fb728"/><path d="M432.8,12.9l3.2,1.8-4.2,1Z" fill="#adcc53"/><path d="M401.8,22.3,387,14.1l17-5.9Z" fill="#85b727"/><path d="M386.4,32.6l.6-18.5,14.8,8.2Z" fill="#80af2b"/><path d="M378.7,3.3l-3.4,18.1L387,14.1Z" fill="#94c137"/><path d="M387,14.1l-11.7,7.3,11.1,11.2Z" fill="#6ca12e"/><path d="M375.3,21.4V34.7l11.1-2.1Z" fill="#628b2e"/><path d="M400,32.7H386.4l15.4-10.3Z" fill="#6d9c2e"/><path d="M401.8,22.3,404,8.2l5,9.5Z" fill="#75a72d"/><path d="M413.7,10.9,404,8.2l5,9.5Z" fill="#a5c951"/><path d="M400,43,386.4,32.6H400Z" fill="#537a2c"/><path d="M409,17.7l-9,15,1.8-10.4Z" fill="#618a2e"/><path d="M419.6,20.8l-5.9-9.9L409,17.7Z" fill="#adcc52"/><path d="M412.6,40.3,409,17.7l-9,15Z" fill="#75a72d"/><path d="M419.5,20.7l-10.5-3,13.4,11.5Z" fill="#c0d570"/><path d="M412.6,40.3,409,17.7l13.4,11.5Z" fill="#84b527"/><path d="M400,32.7V43l12.6-2.7Z" fill="#5e842d"/><path d="M412.6,40.3,400,43l27.3,7Z" fill="#547b2d"/><path d="M422.4,29.2l-9.8,11.1,17.2-1.4Z" fill="#80af2b"/><path d="M429.7,38.9l-17.1,1.4L427.3,50Z" fill="#5d892f"/><path d="M435.1,24.2l-15.6-3.4,2.9,8.4Z" fill="#adcc53"/><path d="M435.1,24.2l-12.7,5,7.3,9.7Z" fill="#92c029"/><path d="M435.1,24.2l-5.3,14.7,18.7-2.3Z" fill="#89bd24"/><path d="M429.7,38.9,427.3,50l21.2-13.4Z" fill="#6a932e"/><path d="M442.9,42.7,427.3,50l21.2-13.4Z" fill="#6ca12e"/><path d="M451.9,46.3,427.3,50l15.6-7.3Z" fill="#537a2c"/><path d="M459.3,14.1,435.1,24.2h14Z" fill="#c0d570"/><path d="M435.1,24.2l13.4,12.4.5-12.5Z" fill="#7fb329"/><path d="M442.9,42.7l5.6-6.1,3.4,9.8Z" fill="#6d9c2e"/><path d="M449,24.2l-.5,12.4,10.8-22.5Z" fill="#80af2b"/><path d="M459.3,14.1,448.5,36.6l8.1-6.1Z" fill="#6d9c2e"/><path d="M461.1,39l-12.6-2.4,3.4,9.7Z" fill="#5d892f"/><path d="M456.6,30.5l-8.1,6.1L461.1,39Z" fill="#628b2e"/><path d="M459.3,14.1l-2.7,16.4,12.7-3Z" fill="#94c137"/><path d="M469.3,15.2l-10-1.1,10,13.5Z" fill="#adcc53"/><path d="M456.6,30.5l4.5,8.5,8.2-11.4Z" fill="#75a72d"/><path d="M469.3,27.6,461.1,39l8,9.8Z" fill="#5d892f"/><path d="M461.1,39l-9.2,7.3,17.2,2.5Z" fill="#537a2c"/><path d="M318.9,16.3l-3.4,18.2-10.8-1.3Z" fill="#5b862e"/><path d="M368.1,9.9l7.2,11.5,3.4-18.1Z" fill="#85b727"/><path d="M360.9,33.2l14.4-11.8L368.1,9.9Z" fill="#84b527"/><path d="M352.6,25.8l8.3,7.4,7.2-23.3Z" fill="#80af2b"/><path d="M360.9,33.2l14.4,1.5V21.4Z" fill="#6ca12e"/><path d="M353,44l7.9-10.8-8.3-7.4Z" fill="#6d9c2e"/><path d="M346.5,36.7l6.1-10.9-18.9-3.2Z" fill="#6ca02e"/><path d="M353,44l-.4-18.2-6.1,10.9Z" fill="#6a932e"/><path d="M353,44l-6.5-7.3L334.6,36Z" fill="#6b8e2d"/><path d="M333.7,22.6l-4.2-6-2.8,14.8Z" fill="#7fb329"/><path d="M329.5,16.6l-10.6-.2,7.8,14.9Z" fill="#75a72d"/><path d="M318.9,16.4,307.1,12l-2.4,21.2Z" fill="#77ac2c"/><path d="M329.5,16.6,312.2,4.5l6.7,11.9Z" fill="#a5c84b"/><path d="M312.2,4.6l-20.4,8,15.3-.6Z" fill="#adcc53"/><path d="M326.7,31.4l-7.8-15-3.4,18.1Z" fill="#5d892f"/><path d="M304.7,33.2l-7.4-8.6L296.4,42Z" fill="#618a2e"/><path d="M288.3,33.3l8.1,8.6.9-17.4Z" fill="#5d842d"/><path d="M318.9,16.4,312.2,4.6,307.1,12Z" fill="#89bc24"/><path d="M307.1,12l-15.3.6,5.5,12Z" fill="#8ebf2d"/><path d="M334.6,36l-.9-13.4-7,8.8Z" fill="#618d2f"/><path d="M334.6,36l-7.9-4.6-11.3,3.1Z" fill="#537a2c"/><path d="M315.4,34.5l-10.7-1.3L296.4,42Z" fill="#597f2d"/><path d="M296.4,42l-8.1-8.7-7.9,1.5,3.5,1.6Z" fill="#62872d"/><path d="M352.6,25.8l-1.7-13.3L333.7,22.6Z" fill="#7fb529"/><path d="M352.6,25.8,357,4.5l-6.1,8Z" fill="#85b727"/><path d="M352.6,25.8,368.1,9.9,357,4.5Z" fill="#a5c951"/><path d="M360.9,33.2,353,44l22.3-9.3Z" fill="#628b2e"/><path d="M329.5,16.6l21.4-4.1L333.7,22.6Z" fill="#92c029"/><path d="M333.7,22.6l12.8,14.1L334.6,36Z" fill="#5e8a2f"/><path d="M329.5,16.6,357,4.5l-6.1,8Z" fill="#adcc52"/><path d="M291.8,12.6l5.5,12L281.6,13.9Z" fill="#89bd24"/><path d="M284.6,6.5l7.2,6.1-10.2,1.3Z" fill="#c0d570"/><path d="M279.6,7.4l5-.9-3,7.5-.9-3.2Z" fill="#bcd368"/><path d="M285.8,29l-4.2-15.1,15.7,10.6Z" fill="#80b528"/><path d="M285.8,29l-5.4,5.8.3-13.4.9-7.4Z" fill="#78a82c"/><path d="M285.8,29l2.5,4.3-7.9,1.5,2.4-2.7Z" fill="#547b2d"/><path d="M307.1,12.1l-2.4,21.1-7.4-8.6Z" fill="#7eb129"/><path d="M285.8,29l2.5,4.3,9.1-8.8Z" fill="#5c862e"/><path d="M302,2.8l2.2,3.6-5.3-.6Z" fill="#7fb728"/><path d="M298.3,2.8H302l-3.1,3Z" fill="#639630"/><path d="M252,47.5l-4.1-.6,3.9-3.7Z" fill="#547b2d"/><path d="M254.4,44.7,252,47.5l-.2-4.3Z" fill="#639630"/><path d="M279.6,31.7" fill="#547b2d"/><polyline points="281.6 13.9 269 20.3 281.6 13.9 280.4 34.8 269 20.3 281.6 13.9" fill="#77ac2c"/><path d="M281.6,13.9" fill="#75a72d"/><path d="M237.5-1.2" fill="#c0d570"/><path d="M237.5-1.2" fill="#89bc24"/><path d="M237.5-1.2" fill="#75a72d"/><path d="M279.6,7.4" fill="#c0d570"/><polygon points="281.6 13.9 279.6 7.4 269 20.3 281.6 13.9" fill="#8ebf2d"/><polygon points="279.6 7.4 262.7 4.6 269 20.3 279.6 7.4" fill="#a5c951"/><polygon points="280.4 34.8 275.3 39.3 269 20.3 280.4 34.8" fill="#6a932e"/><polygon points="262.7 4.6 252.8 8.6 269 20.3 262.7 4.6" fill="#c0d570"/><polygon points="275.3 39.3 262.7 22.3 269 20.3 275.3 39.3" fill="#628b2e"/><polygon points="252.8 8.6 245.2 17.5 269 20.3 252.8 8.6" fill="#89bd24"/><polygon points="262.7 22.3 245.2 17.5 269 20.3 262.7 22.3" fill="#6ca02e"/><polygon points="275.3 39.3 263.8 41.9 262.7 22.3 275.3 39.3" fill="#547b2d"/><polygon points="245.2 17.5 235.1 8.6 252.8 8.6 245.2 17.5" fill="#94c137"/><polygon points="262.7 22.3 247.9 26.1 250.9 37.5 262.7 22.3" fill="#5b862e"/><polygon points="263.8 41.9 262.7 22.3 250.9 37.5 263.8 41.9" fill="#62872d"/><polygon points="247.9 26.1 245.2 17.5 262.7 22.3 247.9 26.1" fill="#77ac2c"/><polygon points="250.9 37.5 235.1 45.3 235 33.3 250.9 37.5" fill="#618a2e"/><polygon points="247.9 26.1 235 33.3 250.9 37.5 247.9 26.1" fill="#537a2c"/><polygon points="245.2 17.5 235 33.3 247.9 26.1 245.2 17.5" fill="#6d9c2e"/><polygon points="235.1 8.6 235 33.3 245.2 17.5 235.1 8.6" fill="#75a72d"/><polygon points="387 14.1 392 2.8 378.7 3.3 387 14.1" fill="#c0d570"/><polygon points="404 8.2 392 2.8 387 14.1 404 8.2" fill="#a5c951"/></svg>
