<?xml version="1.0" encoding="utf-8"?>
<!-- Generator: Adobe Illustrator 22.1.0, SVG Export Plug-In . SVG Version: 6.00 Build 0)  -->
<svg version="1.1" id="Layer_1" xmlns="http://www.w3.org/2000/svg" xmlns:xlink="http://www.w3.org/1999/xlink" x="0px" y="0px"
	 viewBox="0 0 24 24" style="enable-background:new 0 0 24 24;" xml:space="preserve">
<g>
	<g>
		<path style="fill:#414141;" d="M14.9,18C14,18.4,13,18.6,12,18.6c-3.7,0-6.7-3-6.7-6.6c0-3.7,3-6.6,6.7-6.6c1,0,2,0.2,2.9,0.7
			l3.3-1.9C16.5,2.8,14.3,2,12,2C6.5,2,2,6.5,2,12s4.5,10,10,10c2.3,0,4.5-0.8,6.2-2.1L14.9,18z"/>
	</g>
	<path style="fill:#8CC540;" d="M24,18.5v-13c0-0.4-0.4-0.6-0.8-0.4l-7.9,4.6v4.7l7.9,4.6C23.6,19.1,24,18.9,24,18.5z"/>
</g>
</svg>
