<svg style="enable-background:new 0 0 297 297.3" xmlns="http://www.w3.org/2000/svg" xml:space="preserve" viewBox="0 0 297 297.3" version="1.1" y="0px" x="0px">
<style type="text/css">
	.st0{fill:#404041;}
	.st1{fill:#00B2EF;}
</style>
			<path class="st0" d="m143.6 297.3l-124.2-124.3c-6.5-6.5-10.1-15.2-10.1-24.4s3.6-17.9 10.1-24.4l124.2-124.2 26.7 26.7-114.8 114.9c-1.9 1.9-2.9 4.4-2.9 7s1 5.1 2.9 7l114.9 114.9-26.8 26.8z"/>
	<path class="st1" d="m288.2 148.6c0-2.6-1-5.1-2.9-7l-3.6-3.6-71.5-71.5-2.4 2.4c-10.3 10.6-18.4 22.8-24.1 36.4-5.7 13.7-8.7 28.2-8.7 43.2 0 14.8 2.9 29.2 8.7 42.9 5.7 13.6 13.9 25.9 24.3 36.6l2.4 2.4 71.3-71.3 3.6-3.6c1.8-1.7 2.9-4.2 2.9-6.9z"/>
</svg>
